<mxfile host="app.diagrams.net" modified="2023-04-11T03:59:47.720Z" agent="Mozilla/5.0 (Windows NT 10.0; Win64; x64) AppleWebKit/537.36 (KHTML, like Gecko) Chrome/111.0.0.0 Safari/537.36" version="21.1.5" etag="wIkHfIuTQAnb8pRMrkQ9" type="github">
  <diagram name="PÃ¡gina-1" id="lHuvHtWLIhKp1GGAbxEE">
    <mxGraphModel>
      <root>
        <mxCell id="0" />
        <mxCell id="1" parent="0" />
      </root>
    </mxGraphModel>
  </diagram>
</mxfile>
